<?xml version="1.0" encoding="utf-8"?>
<!-- Generator: Adobe Illustrator 28.0.0, SVG Export Plug-In . SVG Version: 6.00 Build 0)  -->
<svg version="1.1" id="Layer_1" xmlns="http://www.w3.org/2000/svg" xmlns:xlink="http://www.w3.org/1999/xlink" x="0px" y="0px"
	 viewBox="0 0 1080 1080" style="enable-background:new 0 0 1080 1080;" xml:space="preserve">
<style type="text/css">
	.st0{display:none;fill:none;stroke:#000000;stroke-width:0;stroke-linecap:round;stroke-linejoin:round;}
	.st1{display:none;fill:#B25959;stroke:#00DEFF;stroke-width:0;stroke-linecap:round;stroke-linejoin:round;}
	.st2{display:none;fill:#2700E7;stroke:#2700E7;stroke-width:0;stroke-linecap:round;stroke-linejoin:round;}
	.st3{fill:#29ABE2;}
</style>
<circle class="st0" cx="540" cy="540" r="500"/>
<path class="st1" d="M1059.91,549.15c0.05-3.05,0.09-6.09,0.09-9.15c0-287.19-232.81-520-520-520S20,252.81,20,540
	c0,3.06,0.04,6.11,0.09,9.15"/>
<path class="st2" d="M20.09,549.15C24.97,274.46,255.87,53.23,540,53.23s515.03,221.22,519.91,495.92
	C1055.03,832.12,824.13,1060,540,1060S24.97,832.12,20.09,549.15z"/>
<path class="st3" d="M550.49,986.93c-13.02-10.58-325.22-265.86-327.74-268.67c-1.48-1.65-1.92-4.42-2.38-6.78
	c-2.91-14.7-78.36-398.76-80.05-408.05c-0.18-0.98,0.95-2.91,1.91-3.27c17.22-6.54,385.03-144.48,393.51-146.84
	c3.17-0.88,7.31,0.85,10.78,2.03c14.06,4.81,374.7,131.39,389.05,136.48c2.68,0.95,4.88,1.63,3.9,6.07
	c-3.26,14.74-70.2,389.59-73.91,408.26c-0.56,2.82-3.91,5.26-6.34,7.48C854.11,718.31,553.16,984.44,550.49,986.93z M561.53,219.15
	c0,1.61,0,2.36,0,3.1c-0.25,36.58-0.79,142.73-0.67,159.22c0.01,1.32,0.8,3.4,1.8,3.84c9.56,4.21,70.43,32.19,91.24,42.12
	c0.85,0.4,2.34,0.19,3.2-0.3c15.38-8.86,169.12-98.24,177.5-103.12C743.26,288.94,652.66,254.15,561.53,219.15z M520.54,880.58
	c0.42-0.16,0.84-0.32,1.27-0.48c-0.33-4.52-4.48-183.77-4.73-202.6c0-0.37,0.12-0.82-0.03-1.11c-0.48-0.92-0.86-2.1-1.64-2.62
	c-5.66-3.74-62.49-41.13-85.66-56.55c-45.64,28.07-92.19,56.69-139.3,85.65C367.49,762.38,444.02,821.48,520.54,880.58z
	 M247.53,329.35c6.98,3.83,163.15,88.29,182.11,98.35c1.32,0.7,3.61,0.68,4.97,0.01c11.08-5.45,66.33-32.9,82.91-41.1
	c0.9-0.45,1.73-2.08,1.72-3.16c-0.03-4.33-2.91-157.46-2.91-164.04C426.54,256.14,337.47,292.57,247.53,329.35z M267.25,664.09
	c6.89-3.94,120.61-70.57,140.22-82.21c1.2-0.72,2.22-2.98,2.12-4.44c-0.31-4.78-7.37-85.76-8.03-91.9
	c-0.09-0.88-1.05-1.92-1.88-2.42c-6.6-3.91-174.62-102.11-179.31-104.7C236.08,474.12,251.61,568.77,267.25,664.09z M656.98,614.91
	c-6.85,5.17-57.43,41.4-75.08,53.96c-1.17,0.83-2.26,2.66-2.29,4.06c-0.41,15.07-3.1,204.33-3.1,206.52
	c74.05-61.66,147.23-122.59,220.78-183.82C749.87,668.34,703.19,641.49,656.98,614.91z M819.24,656.46
	c14.08-94.62,28.08-188.76,42.23-283.9c-6.47,4.06-157.01,99.04-174.45,109.95c-2.43,1.52-3.2,3.57-3.32,6.12
	c-0.28,5.95-5.97,80.91-6.47,87.3c-0.09,1.14,0.65,2.88,1.57,3.47C682.02,581.45,812.46,652.83,819.24,656.46z"/>
</svg>
